<svg width="221" height="55" viewBox="0 0 221 55" fill="none" xmlns="http://www.w3.org/2000/svg">
<g id="ppsync">
<text id="PPSYN" fill="white" xml:space="preserve" style="white-space: pre" font-family="Roboto" font-size="52" font-weight="bold" letter-spacing="0em"><tspan x="0" y="48.2734">PPSYN</tspan></text>
<g id="Group">
<path id="Vector" d="M203.96 46.4576L203.174 40.9763C190.683 49.3582 182.608 39.0238 181.264 36.1866L182.196 35.77C182.608 35.585 182.887 35.1903 182.924 34.7398C182.96 34.2897 182.748 33.8548 182.371 33.6062L175.144 28.8493C174.986 28.7448 174.81 28.6801 174.629 28.6558C174.405 28.6258 174.173 28.6582 173.96 28.7534C173.574 28.9252 173.303 29.2819 173.24 29.6999L171.962 38.2575C171.895 38.7042 172.077 39.1519 172.437 39.4257C172.611 39.5577 172.813 39.6384 173.021 39.6663C173.245 39.6962 173.476 39.6653 173.69 39.5697L174.136 39.3702C179.682 51.8073 195.787 55.1073 205.589 48.7828C204.714 48.2996 204.103 47.4578 203.96 46.4576Z" fill="white"/>
<path id="Vector_2" d="M179.68 29.493C179.43 24.4481 184.037 14.8726 195.042 15.1441L195.025 15.2749C194.965 15.7225 195.154 16.1679 195.518 16.4354C195.688 16.5611 195.885 16.6381 196.087 16.6652C196.317 16.6959 196.555 16.662 196.773 16.5604L204.618 12.9119C205.001 12.7334 205.267 12.3727 205.323 11.9539C205.379 11.5349 205.218 11.1172 204.895 10.8442L198.284 5.26117C198.101 5.10586 197.879 5.01053 197.65 4.97979C197.447 4.95273 197.237 4.97528 197.04 5.05194C196.619 5.21442 196.319 5.59426 196.259 6.04201L196.079 7.39356C185.549 5.93933 173.011 14.4012 171.936 27.9327C171.936 27.9327 173.779 26.5689 174.888 26.7173C175.821 26.842 175.964 27.0471 179.68 29.493Z" fill="white"/>
<path id="Vector_3" d="M215.61 41.198C215.576 40.7473 215.3 40.3505 214.888 40.1639L214.039 39.7786C217.613 32.8469 218.449 20.1749 207.267 11.5384C207.284 11.7609 207.292 11.9856 207.261 12.2129C207.116 13.2989 206.436 14.2232 205.442 14.6854L200.912 16.7922C204.467 18.3538 212.036 26.0722 206.913 36.5446L206.405 36.3142C206.293 36.2637 206.176 36.2298 206.058 36.2139C205.741 36.1716 205.414 36.254 205.152 36.4509C204.79 36.7218 204.605 37.1686 204.669 37.6162L205.896 46.1799C205.956 46.5978 206.225 46.9562 206.609 47.1312C206.72 47.1816 206.837 47.2148 206.956 47.2307C207.245 47.2693 207.543 47.2043 207.794 47.0415L215.05 42.3283C215.429 42.0822 215.644 41.6488 215.61 41.198Z" fill="#81E1FF"/>
</g>
</g>
</svg>
