<svg width="218" height="53" viewBox="0 0 218 53" fill="none" xmlns="http://www.w3.org/2000/svg">
<g id="ppsync">
<g id="PPSYN">
<path d="M7.91797 32.9746V46H0.300781V9.03125H14.7227C17.4987 9.03125 19.9362 9.53906 22.0352 10.5547C24.151 11.5703 25.776 13.0176 26.9102 14.8965C28.0443 16.7585 28.6113 18.8828 28.6113 21.2695C28.6113 24.8919 27.3672 27.7526 24.8789 29.8516C22.4076 31.9336 18.9798 32.9746 14.5957 32.9746H7.91797ZM7.91797 26.8047H14.7227C16.737 26.8047 18.2689 26.3307 19.3184 25.3828C20.3848 24.4349 20.918 23.0807 20.918 21.3203C20.918 19.5091 20.3848 18.0449 19.3184 16.9277C18.252 15.8105 16.7793 15.235 14.9004 15.2012H7.91797V26.8047Z" fill="white"/>
<path d="M41.4844 32.9746V46H33.8672V9.03125H48.2891C51.0651 9.03125 53.5026 9.53906 55.6016 10.5547C57.7174 11.5703 59.3424 13.0176 60.4766 14.8965C61.6107 16.7585 62.1777 18.8828 62.1777 21.2695C62.1777 24.8919 60.9336 27.7526 58.4453 29.8516C55.974 31.9336 52.5462 32.9746 48.1621 32.9746H41.4844ZM41.4844 26.8047H48.2891C50.3034 26.8047 51.8353 26.3307 52.8848 25.3828C53.9512 24.4349 54.4844 23.0807 54.4844 21.3203C54.4844 19.5091 53.9512 18.0449 52.8848 16.9277C51.8184 15.8105 50.3457 15.235 48.4668 15.2012H41.4844V26.8047Z" fill="white"/>
<path d="M86.6035 36.3008C86.6035 34.862 86.0957 33.7617 85.0801 33C84.0645 32.2214 82.2363 31.4089 79.5957 30.5625C76.9551 29.6992 74.8646 28.8529 73.3242 28.0234C69.1263 25.7552 67.0273 22.6999 67.0273 18.8574C67.0273 16.86 67.5859 15.0827 68.7031 13.5254C69.8372 11.9512 71.4538 10.724 73.5527 9.84375C75.6686 8.96354 78.0384 8.52344 80.6621 8.52344C83.3027 8.52344 85.6556 9.00586 87.7207 9.9707C89.7858 10.9186 91.3854 12.2643 92.5195 14.0078C93.6706 15.7513 94.2461 17.7318 94.2461 19.9492H86.6289C86.6289 18.2565 86.0957 16.9447 85.0293 16.0137C83.9629 15.0658 82.4648 14.5918 80.5352 14.5918C78.6732 14.5918 77.2259 14.9896 76.1934 15.7852C75.1608 16.5638 74.6445 17.5964 74.6445 18.8828C74.6445 20.0846 75.2454 21.0918 76.4473 21.9043C77.666 22.7168 79.4518 23.4785 81.8047 24.1895C86.138 25.4928 89.2949 27.1094 91.2754 29.0391C93.2559 30.9688 94.2461 33.3724 94.2461 36.25C94.2461 39.4492 93.0358 41.9629 90.6152 43.791C88.1947 45.6022 84.9362 46.5078 80.8398 46.5078C77.9961 46.5078 75.4062 45.9915 73.0703 44.959C70.7344 43.9095 68.9486 42.4792 67.7129 40.668C66.4941 38.8568 65.8848 36.7578 65.8848 34.3711H73.5273C73.5273 38.4505 75.9648 40.4902 80.8398 40.4902C82.651 40.4902 84.0645 40.1263 85.0801 39.3984C86.0957 38.6536 86.6035 37.6211 86.6035 36.3008Z" fill="white"/>
<path d="M112.172 25.6875L119.865 9.03125H128.193L116.057 32.5938V46H108.312V32.5938L96.1758 9.03125H104.529L112.172 25.6875Z" fill="white"/>
<path d="M161.633 46H154.016L139.188 21.6758V46H131.57V9.03125H139.188L154.041 33.4062V9.03125H161.633V46Z" fill="white"/>
</g>
<g id="Group">
<path id="Vector" d="M200.96 44.4576L200.174 38.9763C187.683 47.3582 179.608 37.0238 178.264 34.1866L179.196 33.77C179.608 33.585 179.887 33.1903 179.924 32.7398C179.96 32.2897 179.748 31.8548 179.371 31.6062L172.144 26.8493C171.986 26.7448 171.81 26.6801 171.629 26.6558C171.405 26.6258 171.173 26.6582 170.96 26.7534C170.574 26.9252 170.303 27.2819 170.24 27.6999L168.962 36.2575C168.895 36.7042 169.077 37.1519 169.437 37.4257C169.611 37.5577 169.813 37.6384 170.021 37.6663C170.245 37.6962 170.476 37.6653 170.69 37.5697L171.136 37.3702C176.682 49.8073 192.787 53.1073 202.589 46.7828C201.714 46.2996 201.103 45.4578 200.96 44.4576Z" fill="white"/>
<path id="Vector_2" d="M176.68 27.493C176.43 22.4481 181.037 12.8726 192.042 13.1441L192.025 13.2749C191.965 13.7225 192.154 14.1679 192.518 14.4354C192.688 14.5611 192.885 14.6381 193.087 14.6652C193.317 14.6959 193.555 14.662 193.773 14.5604L201.618 10.9119C202.001 10.7334 202.267 10.3727 202.323 9.95389C202.379 9.53493 202.218 9.11716 201.895 8.84423L195.284 3.26117C195.101 3.10586 194.879 3.01053 194.65 2.97979C194.447 2.95273 194.237 2.97528 194.04 3.05194C193.619 3.21442 193.319 3.59426 193.259 4.04201L193.079 5.39356C182.549 3.93933 170.011 12.4012 168.936 25.9327C168.936 25.9327 170.779 24.5689 171.888 24.7173C172.821 24.842 172.964 25.0471 176.68 27.493Z" fill="white"/>
<path id="Vector_3" d="M212.61 39.198C212.576 38.7473 212.3 38.3505 211.888 38.1639L211.039 37.7786C214.613 30.8469 215.449 18.1749 204.267 9.5384C204.284 9.7609 204.292 9.98555 204.261 10.2129C204.116 11.2989 203.436 12.2232 202.442 12.6854L197.912 14.7922C201.467 16.3538 209.036 24.0722 203.913 34.5446L203.405 34.3142C203.293 34.2637 203.176 34.2298 203.058 34.2139C202.741 34.1716 202.414 34.254 202.152 34.4509C201.79 34.7218 201.605 35.1686 201.669 35.6162L202.896 44.1799C202.956 44.5978 203.225 44.9562 203.609 45.1312C203.72 45.1816 203.837 45.2148 203.956 45.2307C204.245 45.2693 204.543 45.2043 204.794 45.0415L212.05 40.3283C212.429 40.0822 212.644 39.6488 212.61 39.198Z" fill="#81E1FF"/>
</g>
</g>
</svg>
